<svg
                  width="46"
                  height="25"
                  viewBox="0 0 46 25"
                  fill="none"
                  xmlns="http://www.w3.org/2000/svg"
                >
<path
                    d="M7.56699 10.257C3.38781 10.257 0 13.6047 0 17.7351C0 21.8642 3.38781 25.2121 7.56699 25.2121C10.6183 25.2121 13.2421 23.4231 14.4388 20.8513L16.2366 22.2211C16.2366 22.2211 29.4475 22.3143 30.1732 21.9092C30.1732 21.9092 28.5338 17.4851 30.6147 15.6151C30.8338 15.4182 31.1091 15.1936 31.4119 14.9558C31.0631 15.8148 30.867 16.7509 30.867 17.7344C30.867 21.8643 34.2545 25.2114 38.4337 25.2114C42.6129 25.2114 46.0001 21.8628 46.0001 17.7344C46.0001 13.604 42.6121 10.2571 38.4337 10.2571C38.3651 10.2571 38.2996 10.2657 38.2313 10.2671C38.7778 9.91649 39.1266 9.6964 39.1266 9.6964L38.5591 9.19756C38.5591 9.19756 40.1987 8.82423 39.8211 8.01373C39.4422 7.20324 35.4699 2.3432 35.4699 2.3432C35.4699 2.3432 36.1735 0.847437 34.7182 -0.211945L34.0193 1.28362C34.0193 1.28362 32.2378 0.0684687 31.5286 0.302471C30.8192 0.535791 29.7557 0.653036 29.4235 1.16687L29.0929 1.47083C29.0929 1.47083 28.9993 2.00869 29.542 2.80313C29.542 2.80313 35.005 4.46206 35.2647 5.67702C35.2647 5.67702 35.6436 6.44889 34.0114 6.63482L33.6812 7.05593L32.8052 7.10254L31.2217 3.52703C31.2217 3.52703 29.7072 3.9242 28.9275 4.53143L29.0458 5.13857C29.0458 5.13857 22.685 0.863004 16.7019 7.19516C16.7019 7.19516 12.2799 8.45673 9.18212 4.57814C9.18212 4.57814 9.13495 3.31638 1.66259 3.55018L2.18308 4.08766C2.18308 4.08766 1.66259 4.13426 1.4501 4.46138C1.23761 4.78811 1.56826 5.13867 3.27113 5.13867C3.27113 5.13867 7.12635 9.48478 10.082 9.2283L14.2907 11.2381L16.1591 14.3925C16.1591 14.3925 16.1624 14.6635 16.1817 15.078C15.7481 15.1692 15.262 15.2705 14.7462 15.3786C13.7463 12.4045 10.9131 10.257 7.56699 10.257ZM38.4336 12.5484C41.328 12.5484 43.6817 14.875 43.6817 17.7343C43.6817 20.5939 41.3272 22.9197 38.4336 22.9197C35.5393 22.9197 33.186 20.5931 33.186 17.7343C33.186 14.875 35.5394 12.5484 38.4336 12.5484ZM7.56699 22.9206C4.67338 22.9206 2.31887 20.5939 2.31887 17.7351C2.31887 14.875 4.67338 12.5492 7.56699 12.5492C9.79152 12.5492 11.6923 13.9263 12.4544 15.8611C9.67179 16.446 6.90983 17.0277 6.90983 17.0277L7.26617 18.9672L12.7152 18.7294C12.2457 21.114 10.1169 22.9206 7.56699 22.9206ZM16.6557 18.557C16.8103 19.0759 17.012 19.4885 17.2772 19.6656L14.8455 19.7596C14.9496 19.3915 15.0283 19.0137 15.0757 18.6249L16.6557 18.557Z"
                    fill="black"
                  />
</svg>
